<?xml version="1.0" encoding="UTF-8"?>
<svg id="Layer_1" xmlns="http://www.w3.org/2000/svg" version="1.1" viewBox="0 0 398.79 26.82">
  <!-- Generator: Adobe Illustrator 29.4.0, SVG Export Plug-In . SVG Version: 2.1.0 Build 152)  -->
  <path d="M0,3.51c1.46.17,3.75.62,6.12,2.03.86.51,3.27,2.06,7.21,8.13,3.35,5.15,2.77,5.31,4.03,6.9,5.99,7.57,18.61,3.9,22.95-3.55,1.03-1.77,2.32-4.42.18-5.9-2.69-1.87-4.28.73-5.76,2.53l-.26-3.29-1.66.76-1.92,2.28c.27-4.29,3.47-7.1,7.25-8.66,10.26-4.24,25.54-.73,31.98,8.48,3.23,4.61,3.95,9.66,10.43,11.21,6.36,1.52,15.32-2.67,17.87-8.68,1.12-2.64.52-5.52-2.89-5.14-1.91.21-2.19,2.02-3.45,3.05l-.39-3.54c-1.83.69-2.34,2.18-3.46,3.55-.09-5.77,5.67-8.71,10.59-9.91,9.83-2.4,22.66.47,29.48,8.14,4.73,5.32,5.35,12.25,14.11,12.89,5.94.43,13.76-3.98,15.76-9.68.96-2.75-.24-5.07-3.44-4.42-1.61.33-2.01,1.85-2.87,2.98-.62.02-.32-2.76-.39-3.29-1.1-.09-1.72.85-2.44,1.51l-1.14,1.78c-.32-5.08,4.8-8.26,9.16-9.56,9.64-2.86,22.37-.09,28.98,7.66,4.94,5.79,5.09,13.48,15.25,13.05,5.4-.23,13.55-5.38,14.18-11.06.36-3.26-3.57-4.41-5.73-1.6-.42.55-.44,1.62-1.17,1.5l-.04-2.92c-.1-.86-1.68.27-1.99.54-.74.66-1.05,1.78-1.81,2.38,0-3.99,3.07-6.8,6.43-8.46,9.66-4.76,24.5-1.56,31.45,6.56,4.44,5.19,4.68,12.2,13.22,13.01,5.89.56,13.41-3.55,15.58-9.09,1.02-2.61.7-5.46-2.82-5.07-1.8.2-2.29,1.98-3.45,3.05-.38-1.12-.35-2.17,0-3.29-.92-.77-3.29,2.69-3.84,3.29.08-4.74,4.38-8,8.56-9.38,10.03-3.32,23.74-.14,30.34,8.25,3.65,4.64,4.14,10.08,10.81,11.85,6.08,1.61,13.86-1.77,17.05-7.09,1.11-1.85,2.71-4.93.15-6.38-2.53-1.43-4.27.72-5.34,2.75-.62.02-.32-2.76-.39-3.29-.48-.49-2.25,1.25-2.56,1.65-.43.54-.52,1.31-1.02,1.64-.31-4.38,3.67-7.54,7.43-8.99,10.25-3.95,24.19-.91,31.22,7.6,2.9,3.51,3.98,8.51,8.12,10.97,5.95,3.54,14.72.48,18.77-4.65,1.43-1.81,3.62-5.76,1.16-7.47-2.57-1.78-4.42.63-5.76,2.53-.38-1.12-.35-2.17,0-3.29-.92-.77-3.29,2.69-3.84,3.29.12-5.15,4.83-8.29,9.36-9.61,1.03-.3,3.92-1.03,4.85-1.03h6.14c.44,0,1.88.38,2.43.51v23.31H0V3.51Z"/>
</svg>